<svg xmlns="http://www.w3.org/2000/svg" viewBox="0 0 64 64" role="img" aria-label="Nouri bamboo favicon">
  <rect width="64" height="64" rx="14" fill="#163b2f"/>
  <g fill="#e7f6d0">
    <path d="M18 16c3 8 5 14 8 24-4 2-7 4-10 7 0-10 2-18 2-31Z"/>
    <path d="M30 12c4 9 7 16 11 25-5 2-8 4-12 8 0-11 1-20 1-33Z"/>
    <path d="M44 16c3 7 5 12 7 20-4 3-7 5-10 8 0-9 2-16 3-28Z"/>
    <path d="M24 35c4 2 7 4 10 7-4 7-8 10-14 14 0-8 2-14 4-21Z"/>
    <path d="M35 35c4 3 7 5 10 8-4 6-8 10-14 14 0-8 2-14 4-22Z"/>
  </g>
  <path d="M20 44c8 1 13 4 20 9" stroke="#7ccf5d" stroke-width="3" stroke-linecap="round"/>
</svg>
